<svg xmlns="http://www.w3.org/2000/svg" width="36" height="36" viewBox="0 0 256 256" fill="none">
  <rect width="256" height="256" fill="#20232A"/>
  <path d="M128 28C170.183 28 208 65.8172 208 108C208 148.982 176.522 184.534 137.142 196.898L136.858 196.898C97.4778 184.534 66 148.982 66 108C66 65.8172 103.817 28 146 28H128Z" fill="#61DAFB"/>
  <path d="M128 228C85.8172 228 48 190.183 48 148C48 107.018 79.4778 71.4663 118.858 59.1016L119.142 59.1016C158.522 71.4663 190 107.018 190 148C190 190.183 152.183 228 110 228H128Z" fill="#4D5BCE"/>
</svg>